<svg xmlns="http://www.w3.org/2000/svg" xmlns:xlink="http://www.w3.org/1999/xlink" width="80" height="80" viewBox="0 0 80 80">
    <defs>
        <linearGradient id="c" x1="42.419%" x2="64.132%" y1="35.131%" y2="60.286%">
            <stop offset="0%" stop-color="#B290FF"/>
            <stop offset="100%" stop-color="#91C3F7"/>
        </linearGradient>
        <rect id="b" width="60" height="60" rx="30"/>
        <filter id="a" width="158.3%" height="158.3%" x="-29.2%" y="-20.8%" filterUnits="objectBoundingBox">
            <feOffset dy="5" in="SourceAlpha" result="shadowOffsetOuter1"/>
            <feGaussianBlur in="shadowOffsetOuter1" result="shadowBlurOuter1" stdDeviation="5"/>
            <feComposite in="shadowBlurOuter1" in2="SourceAlpha" operator="out" result="shadowBlurOuter1"/>
            <feColorMatrix in="shadowBlurOuter1" values="0 0 0 0 0.533333333 0 0 0 0 0.533333333 0 0 0 0 0.533333333 0 0 0 0.5 0"/>
        </filter>
    </defs>
    <g fill="none" fill-rule="evenodd">
        <g fill-rule="nonzero" transform="translate(10 10)">
            <use fill="#000" filter="url(#a)" xlink:href="#b"/>
            <rect width="57" height="57" x="1.5" y="1.5" fill="#FFF" fill-rule="evenodd" stroke="url(#c)" stroke-linejoin="square" stroke-width="3" rx="28.5"/>
        </g>
        <path fill="#7553C4" d="M40.782 32h.686c.446 0 .607.046.77.134.163.087.291.215.378.378.088.163.134.324.134.77v13.686c0 .446-.046.607-.134.77a.909.909 0 0 1-.378.378c-.163.088-.324.134-.77.134h-.686c-.446 0-.607-.046-.77-.134a.909.909 0 0 1-.378-.378c-.088-.163-.134-.324-.134-.77V33.282c0-.446.046-.607.134-.77a.909.909 0 0 1 .378-.378c.163-.088.324-.134.77-.134z"/>
        <path fill="#7553C4" d="M49.25 39.782v.686c0 .446-.046.607-.134.77a.909.909 0 0 1-.378.378c-.163.088-.324.134-.77.134H34.282c-.446 0-.607-.046-.77-.134a.909.909 0 0 1-.378-.378c-.088-.163-.134-.324-.134-.77v-.686c0-.446.046-.607.134-.77a.909.909 0 0 1 .378-.378c.163-.088.324-.134.77-.134h13.686c.446 0 .607.046.77.134.163.087.291.215.378.378.088.163.134.324.134.77z"/>
    </g>
</svg>
